<svg width="63" height="63" viewBox="0 0 63 63" fill="none" xmlns="http://www.w3.org/2000/svg">
<g filter="url(#filter0_d_112_92)">
<path d="M58.6895 27.4975C58.6951 31.1211 57.9728 34.709 56.5656 38.0482C56.5236 38.1471 56.4817 38.2459 56.4367 38.3478C54.8694 41.9535 52.5368 45.1754 49.6006 47.7901L49.379 47.9878C46.0684 50.881 42.1058 52.9286 37.8307 53.9552C33.5555 54.9818 29.0953 54.9567 24.8319 53.8822C20.5686 52.8077 16.6293 50.7157 13.3514 47.7855C10.0735 44.8553 7.55481 41.1741 6.01101 37.0574C4.46721 32.9407 3.94433 28.5111 4.48718 24.1481C5.03003 19.7851 6.62242 15.6186 9.12793 12.0057C11.6335 8.39284 14.9774 5.44114 18.8734 3.40349C22.7694 1.36584 27.1012 0.302961 31.4979 0.305914C33.1516 0.306465 34.8019 0.455852 36.4287 0.752268C42.6799 1.90613 48.3294 5.21318 52.396 10.099C56.4626 14.9848 58.6893 21.1407 58.6895 27.4975Z" fill="#305399"/>
<path d="M31.4979 54.9884C24.8124 54.9893 18.3557 52.5543 13.3357 48.1389C8.31581 43.7234 5.07667 37.6302 4.22439 30.9993C3.37212 24.3684 4.96511 17.6541 8.7053 12.1127C12.4455 6.57136 18.0766 2.58263 24.545 0.892863C28.4458 -0.114879 32.519 -0.263087 36.4827 0.458494C40.5258 1.20455 44.3503 2.84738 47.6749 5.26618C50.9995 7.68497 53.7397 10.8182 55.6939 14.4355C57.6481 18.0528 58.7666 22.0621 58.9672 26.1686C59.1678 30.2751 58.4455 34.3743 56.8532 38.1648C56.8112 38.2667 56.7663 38.3685 56.7214 38.4644C55.1328 42.1044 52.7764 45.3581 49.8134 48.0026L49.6636 48.1374L49.5887 48.2033C44.5786 52.5803 38.1507 54.9912 31.4979 54.9884ZM31.4979 0.60528C27.9655 0.602128 24.4672 1.29556 21.2031 2.64589C17.939 3.99623 14.9732 5.97696 12.4754 8.47474C9.97759 10.9725 7.99686 13.9383 6.64652 17.2024C5.29619 20.4666 4.60276 23.9649 4.60591 27.4973C4.59651 31.2429 5.3774 34.9483 6.89759 38.3715C8.60257 42.225 11.1892 45.624 14.4488 48.2944C17.7085 50.9647 21.55 52.8318 25.6637 53.7451C29.7774 54.6584 34.0481 54.5923 38.1315 53.5521C42.2149 52.512 45.9968 50.5269 49.1723 47.7569L49.2472 47.691L49.391 47.5622C52.2912 44.9733 54.5976 41.7881 56.1522 38.2247C56.2001 38.1229 56.2391 38.027 56.281 37.9252C57.837 34.2189 58.543 30.2111 58.3472 26.1962C58.1514 22.1813 57.0587 18.2612 55.1494 14.7239C53.2401 11.1866 50.5627 8.12192 47.3138 5.75494C44.065 3.38795 40.3271 1.77879 36.3749 1.04564C34.7656 0.753698 33.1334 0.606322 31.4979 0.60528Z" fill="#093F68"/>
<path d="M16.921 24.1603C16.6604 25.0171 15.4801 26.2363 14.2249 28.1715C12.9698 30.1067 13.6108 33.6266 13.6108 33.6266L12.0261 35.1903L18.7334 41.8946C19.9317 40.7503 22.433 38.9589 24.1825 37.8505C26.1626 36.5953 32.0161 30.5291 32.7441 29.7352C33.5619 28.8365 33.0437 27.4555 31.9173 27.5274C31.0545 27.5844 29.9312 28.546 29.4429 29.0013C30.1259 28.3333 32.0191 26.44 32.5194 25.5293C33.1335 24.412 32.4625 23.7979 31.5159 23.3515C31.2163 23.2167 30.8389 23.3515 30.4284 23.6181C30.6936 23.3609 30.9324 23.0779 31.1414 22.7733C31.5878 22.0304 31.3271 20.949 30.1738 20.6165C29.5747 20.4367 28.9156 20.8651 28.4363 21.3055C29.4848 20.0353 29.389 19.4571 28.5741 18.6423C27.6065 17.6747 27.3759 18.1211 25.222 20.2809L19.9736 25.5293C19.9736 25.5293 20.7944 22.4019 20.6297 21.4193C20.4649 20.4367 19.6411 20.1312 18.4848 20.8381C17.3284 21.5451 17.1816 23.3036 16.921 24.1603Z" fill="#E28362"/>
<path d="M18.7424 42.1942C18.7029 42.1945 18.6639 42.1869 18.6274 42.172C18.5909 42.1571 18.5577 42.1351 18.5297 42.1074L11.8254 35.4001C11.7696 35.344 11.7383 35.268 11.7383 35.1889C11.7383 35.1098 11.7696 35.0338 11.8254 34.9777L13.2783 33.5218C13.1645 32.7969 12.787 29.8072 13.9643 28.0068C14.4885 27.204 14.9918 26.5329 15.4352 25.9398C16.0343 25.1519 16.4986 24.5259 16.6334 24.0735C16.6814 23.9117 16.7293 23.705 16.7802 23.4744C17.0019 22.5188 17.3045 21.2037 18.335 20.5746C19.2337 20.0264 19.8328 20.1013 20.1773 20.275C20.3858 20.3803 20.5643 20.5366 20.6962 20.7293C20.8282 20.922 20.9094 21.145 20.9322 21.3774C21.043 22.0485 20.7554 23.5403 20.5218 24.5678L25.0153 20.0743L25.6144 19.4752C26.7048 18.3728 27.2021 17.8695 27.7623 17.8695C28.1367 17.8695 28.4423 18.0972 28.7868 18.4417C29.4488 19.1037 29.6526 19.6699 29.3859 20.3649C29.6654 20.2691 29.9674 20.2607 30.2517 20.3409C30.5344 20.4094 30.797 20.5436 31.0182 20.7325C31.2394 20.9214 31.413 21.1598 31.5248 21.4283C31.6195 21.6739 31.6568 21.9378 31.634 22.2C31.6111 22.4622 31.5287 22.7157 31.393 22.9412L31.3451 23.013C31.4489 23.0205 31.5504 23.0469 31.6447 23.0909C32.124 23.3186 32.786 23.6901 32.9927 24.3311C33.0547 24.5588 33.0683 24.7968 33.0327 25.03C32.9971 25.2633 32.9131 25.4864 32.786 25.6852C32.4149 26.2679 31.9875 26.8127 31.5099 27.3118C31.6365 27.2735 31.7672 27.2503 31.8993 27.2429C32.1856 27.2141 32.4737 27.275 32.7239 27.4173C32.974 27.5595 33.1737 27.776 33.2953 28.0368C33.4374 28.3501 33.4823 28.6989 33.4241 29.038C33.3659 29.3771 33.2072 29.691 32.9687 29.939C32.4745 30.4932 26.4053 36.7841 24.3502 38.1022C22.6397 39.1866 20.1563 40.96 18.9581 42.1134C18.9292 42.1404 18.8953 42.1615 18.8583 42.1754C18.8213 42.1892 18.7819 42.1957 18.7424 42.1942ZM12.4515 35.1874L18.7424 41.4783C20.4082 40.0578 22.172 38.7565 24.0207 37.5839C25.9409 36.3707 31.6537 30.4692 32.5224 29.5196C32.6793 29.3595 32.7846 29.1561 32.8247 28.9355C32.8647 28.7149 32.8377 28.4874 32.7471 28.2824C32.6784 28.1288 32.5629 28.0008 32.4171 27.9169C32.2712 27.8329 32.1026 27.7973 31.9352 27.8151C31.399 27.851 30.5423 28.3723 29.6496 29.2081C29.6212 29.2354 29.5878 29.2569 29.5512 29.2713C29.5145 29.2857 29.4754 29.2928 29.4361 29.2921C29.3967 29.2914 29.3579 29.283 29.3218 29.2673C29.2857 29.2516 29.253 29.2289 29.2257 29.2006C29.1983 29.1723 29.1768 29.1388 29.1624 29.1022C29.148 29.0656 29.1409 29.0264 29.1416 28.9871C29.1423 28.9477 29.1508 28.9089 29.1665 28.8728C29.1822 28.8367 29.2048 28.804 29.2332 28.7767C29.8323 28.2015 31.7705 26.2603 32.2588 25.3736C32.3452 25.246 32.4042 25.1018 32.432 24.9502C32.4599 24.7986 32.4559 24.6429 32.4205 24.4929C32.3187 24.1933 31.9802 23.8938 31.387 23.6092C31.2373 23.5403 30.9467 23.6302 30.5902 23.8578C30.5283 23.8988 30.4534 23.9153 30.38 23.9042C30.3067 23.8931 30.24 23.8551 30.193 23.7977C30.146 23.7403 30.122 23.6674 30.1257 23.5933C30.1293 23.5192 30.1603 23.449 30.2127 23.3965C30.4624 23.1563 30.6881 22.8925 30.8868 22.6086C30.9755 22.4619 31.0295 22.2968 31.0445 22.1259C31.0596 21.9551 31.0353 21.7831 30.9736 21.6231C30.8936 21.4407 30.772 21.2797 30.6185 21.1527C30.4651 21.0258 30.284 20.9366 30.0899 20.8921C29.6046 20.7483 29.0325 21.1498 28.64 21.5122C28.5842 21.5634 28.5111 21.5915 28.4353 21.591C28.3596 21.5904 28.2869 21.5611 28.2319 21.5091C28.1768 21.4571 28.1435 21.3862 28.1387 21.3106C28.1338 21.2351 28.1577 21.1605 28.2056 21.1018C29.2002 19.9036 29.0295 19.5081 28.3614 18.8431C28.0828 18.5645 27.9031 18.4447 27.7623 18.4447C27.4627 18.4447 26.9205 18.9809 26.0428 19.8706C25.86 20.0563 25.6593 20.26 25.4437 20.4697L20.1953 25.7181C20.1482 25.7665 20.0862 25.7976 20.0193 25.8063C19.9524 25.8151 19.8845 25.801 19.8266 25.7663C19.7687 25.7316 19.7242 25.6784 19.7003 25.6153C19.6764 25.5522 19.6745 25.4829 19.695 25.4186C19.9167 24.5678 20.4679 22.1892 20.345 21.4373C20.3345 21.3023 20.2914 21.1718 20.2194 21.057C20.1474 20.9422 20.0487 20.8466 19.9316 20.7783C19.6321 20.6405 19.1737 20.7393 18.6525 21.0599C17.8347 21.5602 17.5651 22.7315 17.3674 23.5852C17.3134 23.8159 17.2625 24.0346 17.2086 24.2143C17.0408 24.7685 16.5675 25.3976 15.9145 26.2693C15.4771 26.8685 14.9798 27.5155 14.4646 28.3034C13.2813 30.1008 13.8864 33.5038 13.8954 33.5368C13.9041 33.5847 13.9011 33.634 13.8865 33.6805C13.8718 33.7269 13.8461 33.7691 13.8115 33.8034L12.4515 35.1874Z" fill="#093F68"/>
<path d="M22.3999 27.6502C22.3603 27.6501 22.3211 27.642 22.2845 27.6266C22.248 27.6112 22.215 27.5887 22.1872 27.5604C22.1314 27.5042 22.1001 27.4283 22.1001 27.3492C22.1001 27.27 22.1314 27.1941 22.1872 27.138L28.2324 21.0927C28.2604 21.0648 28.2935 21.0427 28.33 21.0275C28.3665 21.0124 28.4056 21.0046 28.4451 21.0046C28.4846 21.0046 28.5237 21.0124 28.5602 21.0275C28.5967 21.0427 28.6299 21.0648 28.6578 21.0927C28.6858 21.1207 28.7079 21.1538 28.723 21.1903C28.7381 21.2268 28.7459 21.2659 28.7459 21.3054C28.7459 21.3449 28.7381 21.384 28.723 21.4205C28.7079 21.457 28.6858 21.4902 28.6578 21.5181L22.6126 27.5604C22.5848 27.5887 22.5518 27.6112 22.5153 27.6266C22.4787 27.642 22.4395 27.6501 22.3999 27.6502Z" fill="#093F68"/>
<path d="M24.554 29.8012C24.5145 29.8015 24.4754 29.7939 24.4389 29.779C24.4024 29.7641 24.3693 29.7421 24.3413 29.7144C24.2855 29.6582 24.2542 29.5823 24.2542 29.5032C24.2542 29.424 24.2855 29.3481 24.3413 29.292L30.2247 23.4055C30.2526 23.3774 30.2857 23.3551 30.3222 23.3399C30.3587 23.3247 30.3979 23.3169 30.4374 23.3169C30.477 23.3169 30.5161 23.3247 30.5526 23.3399C30.5891 23.3551 30.6223 23.3774 30.6501 23.4055C30.7059 23.4616 30.7372 23.5376 30.7372 23.6167C30.7372 23.6958 30.7059 23.7718 30.6501 23.8279L24.7636 29.7144C24.7079 29.7697 24.6325 29.8009 24.554 29.8012Z" fill="#093F68"/>
<path d="M26.585 32.1707C26.5453 32.1705 26.5061 32.1625 26.4696 32.1471C26.4331 32.1317 26.4 32.1091 26.3723 32.0808C26.3165 32.0247 26.2852 31.9488 26.2852 31.8696C26.2852 31.7905 26.3165 31.7146 26.3723 31.6584L29.2421 28.7916C29.269 28.7602 29.302 28.7348 29.3392 28.7168C29.3763 28.6988 29.4168 28.6887 29.4581 28.6871C29.4993 28.6855 29.5405 28.6925 29.5789 28.7075C29.6174 28.7226 29.6523 28.7454 29.6815 28.7746C29.7107 28.8038 29.7335 28.8387 29.7486 28.8772C29.7636 28.9156 29.7706 28.9568 29.769 28.998C29.7674 29.0393 29.7573 29.0798 29.7393 29.1169C29.7213 29.1541 29.6959 29.1871 29.6645 29.214L26.7976 32.0808C26.7699 32.1091 26.7368 32.1317 26.7003 32.1471C26.6638 32.1625 26.6246 32.1705 26.585 32.1707Z" fill="#093F68"/>
<path d="M19.3326 42.4757L13.7338 48.0836C10.6837 45.4532 8.25487 42.1793 6.62207 38.4975L10.9808 34.1388L18.7425 41.9005L19.3326 42.4757Z" fill="#E52D27"/>
<path d="M13.7336 48.3833C13.6611 48.3841 13.5909 48.3585 13.5358 48.3114C10.456 45.6465 8.00131 42.3357 6.34626 38.6145C6.32201 38.5592 6.31504 38.4978 6.32627 38.4385C6.33749 38.3792 6.36639 38.3246 6.40917 38.282L10.7679 33.9233C10.824 33.8675 10.8999 33.8362 10.979 33.8362C11.0582 33.8362 11.1341 33.8675 11.1902 33.9233L19.5391 42.2752C19.5949 42.3313 19.6262 42.4072 19.6262 42.4864C19.6262 42.5655 19.5949 42.6414 19.5391 42.6976L13.9432 48.2965C13.8875 48.3518 13.8121 48.383 13.7336 48.3833ZM6.98134 38.5606C8.55941 42.0392 10.8554 45.1448 13.7186 47.6734L18.916 42.4759L10.9895 34.5524L6.98134 38.5606Z" fill="#093F68"/>
<path d="M34.8951 37.5359C35.7518 37.7965 36.9711 38.9798 38.9062 40.232C40.8414 41.4842 44.3613 40.8491 44.3613 40.8491L45.9221 42.4098L52.6294 35.7056C51.485 34.5073 49.6936 32.0059 48.5852 30.2565C47.33 28.2733 41.2638 22.4228 40.47 21.6949C39.5713 20.8771 38.1903 21.3953 38.2622 22.5217C38.3191 23.3844 39.2807 24.5048 39.736 24.9931C39.068 24.3131 37.1748 22.4198 36.2641 21.9195C35.1467 21.3204 34.5326 21.9735 34.0862 22.9231C33.9514 23.2077 34.0862 23.6001 34.3529 24.0105C34.0956 23.7446 33.8126 23.5048 33.5081 23.2946C32.7652 22.8482 31.6837 23.1088 31.3482 24.2622C31.1715 24.8613 31.5998 25.5233 32.0402 26.0026C30.77 24.9512 30.1919 25.05 29.3771 25.8648C28.4095 26.8324 28.8558 27.0631 31.0157 29.214L36.2641 34.4624C36.2641 34.4624 33.1366 33.6445 32.154 33.8063C31.1715 33.9681 30.8659 34.7979 31.5729 35.9512C32.2799 37.1045 34.0383 37.2753 34.8951 37.5359Z" fill="#FFC9B0"/>
<path d="M45.925 42.7215C45.8856 42.7217 45.8465 42.7142 45.81 42.6993C45.7735 42.6844 45.7403 42.6624 45.7123 42.6346L44.2564 41.1817C43.5314 41.2956 40.5388 41.67 38.7414 40.4957C37.9386 39.9685 37.2675 39.4682 36.6744 39.0219C35.8865 38.4227 35.2604 37.9614 34.8081 37.8236C34.6463 37.7757 34.4396 37.7277 34.209 37.6768C33.2504 37.4551 31.9383 37.1496 31.3092 36.1221C30.761 35.2234 30.8359 34.6242 30.9946 34.2767C31.1001 34.0687 31.2565 33.8906 31.4492 33.7591C31.642 33.6277 31.8648 33.5471 32.097 33.5248C32.7681 33.414 34.2599 33.7016 35.2874 33.9322L30.7939 29.4388L30.1948 28.8396C29.0924 27.7522 28.5891 27.2549 28.5891 26.6947C28.5891 26.3203 28.8168 26.0117 29.1613 25.6672C29.8233 25.0052 30.3895 24.7985 31.0815 25.0681C30.989 24.7891 30.9807 24.489 31.0575 24.2053C31.1274 23.9224 31.2624 23.6598 31.4517 23.4382C31.641 23.2167 31.8794 23.0424 32.148 22.9292C32.3917 22.8376 32.6529 22.8021 32.9123 22.8255C33.1716 22.8488 33.4223 22.9304 33.6458 23.064C33.6697 23.064 33.6937 23.094 33.7177 23.1089C33.7252 23.0052 33.7516 22.9036 33.7956 22.8094C34.0232 22.3301 34.3947 21.668 35.0358 21.4583C35.2636 21.397 35.5018 21.3839 35.735 21.42C35.9681 21.4561 36.1912 21.5406 36.3898 21.668C36.9726 22.0378 37.5175 22.4643 38.0164 22.9412C37.9781 22.8156 37.955 22.6858 37.9475 22.5547C37.9208 22.2676 37.984 21.9793 38.1284 21.7298C38.2727 21.4802 38.4912 21.2817 38.7534 21.1618C39.0664 21.0192 39.415 20.9739 39.7542 21.0315C40.0933 21.0892 40.4073 21.2473 40.6556 21.4853C41.2817 22.0634 47.5007 28.0278 48.8188 30.1098C49.9032 31.8173 51.6766 34.3037 52.83 35.502C52.884 35.5578 52.9141 35.6325 52.9141 35.7102C52.9141 35.7878 52.884 35.8625 52.83 35.9184L46.1227 42.6256C46.0713 42.6815 46.0006 42.7157 45.925 42.7215ZM44.3612 40.5616C44.4398 40.562 44.5151 40.5932 44.5709 40.6485L45.925 41.9995L52.2159 35.7087C50.7935 34.0444 49.492 32.2804 48.3215 30.4303C47.1232 28.5161 41.2038 22.7974 40.2542 21.9286C40.0946 21.771 39.8911 21.6652 39.6703 21.6251C39.4496 21.5851 39.2219 21.6125 39.017 21.704C38.8637 21.773 38.736 21.8886 38.6521 22.0343C38.5682 22.1801 38.5323 22.3485 38.5497 22.5158C38.5856 23.052 39.1069 23.9088 39.9427 24.8015C39.9733 24.829 39.9979 24.8626 40.015 24.9001C40.0321 24.9376 40.0412 24.9783 40.0419 25.0195C40.0425 25.0607 40.0347 25.1016 40.0188 25.1396C40.0029 25.1776 39.9794 25.212 39.9496 25.2405C39.9199 25.269 39.8845 25.2911 39.8459 25.3053C39.8072 25.3196 39.766 25.3257 39.7249 25.3233C39.6837 25.3209 39.6435 25.31 39.6068 25.2913C39.57 25.2727 39.5375 25.2467 39.5113 25.2149C38.9361 24.6307 36.9949 22.6805 36.1082 22.1923C35.9806 22.1059 35.8364 22.0469 35.6848 22.019C35.5332 21.9912 35.3775 21.9951 35.2275 22.0305C34.9129 22.1323 34.6284 22.4709 34.3288 23.064C34.2599 23.2108 34.3498 23.5014 34.5774 23.8608C34.6157 23.9228 34.6301 23.9965 34.6179 24.0683C34.6057 24.14 34.5678 24.2049 34.5113 24.2508C34.4548 24.2967 34.3835 24.3204 34.3108 24.3175C34.2381 24.3147 34.1688 24.2855 34.1161 24.2353C33.877 23.9854 33.613 23.7605 33.3282 23.5643C33.1815 23.4755 33.0164 23.4215 32.8455 23.4065C32.6747 23.3914 32.5027 23.4157 32.3427 23.4774C32.1607 23.5572 31.9998 23.6783 31.8729 23.8312C31.746 23.9841 31.6566 24.1645 31.6117 24.3581C31.4679 24.8464 31.8694 25.4186 32.2318 25.811C32.283 25.8668 32.3111 25.94 32.3106 26.0157C32.31 26.0914 32.2808 26.1641 32.2288 26.2192C32.1767 26.2742 32.1058 26.3075 32.0302 26.3124C31.9547 26.3172 31.8801 26.2933 31.8214 26.2454C30.6232 25.2508 30.2277 25.4216 29.5627 26.0866C29.2811 26.3682 29.1643 26.5479 29.1643 26.6857C29.1643 26.9853 29.7005 27.5275 30.5902 28.4082C30.7759 28.591 30.9796 28.7917 31.1893 29.0074L36.4407 34.2558C36.4891 34.3028 36.5202 34.3648 36.5289 34.4317C36.5377 34.4986 36.5236 34.5666 36.4889 34.6245C36.4542 34.6824 36.401 34.7268 36.3379 34.7507C36.2748 34.7746 36.2055 34.7765 36.1412 34.756C35.2874 34.5344 32.9118 33.9832 32.1569 34.106C32.0225 34.1162 31.8926 34.1589 31.7784 34.2304C31.6641 34.3018 31.5689 34.4 31.5009 34.5164C31.3601 34.816 31.459 35.2773 31.7795 35.7985C32.2798 36.6134 33.4511 36.886 34.3048 37.0837C34.5355 37.1376 34.7542 37.1855 34.9339 37.2424C35.4881 37.4102 36.1322 37.8835 36.9859 38.5366C37.5851 38.9739 38.2321 39.4712 39.023 39.9865C40.8354 41.1697 44.2234 40.5616 44.2564 40.5556L44.3612 40.5616Z" fill="#093F68"/>
<path d="M38.0883 32.3594C38.0486 32.3592 38.0094 32.3512 37.9729 32.3357C37.9364 32.3203 37.9033 32.2978 37.8756 32.2695L31.8273 26.2243C31.7716 26.1681 31.7402 26.0922 31.7402 26.0131C31.7402 25.9339 31.7716 25.858 31.8273 25.8019C31.8552 25.7738 31.8883 25.7515 31.9248 25.7363C31.9613 25.7211 32.0005 25.7133 32.04 25.7133C32.0796 25.7133 32.1187 25.7211 32.1552 25.7363C32.1918 25.7515 32.2249 25.7738 32.2527 25.8019L38.295 31.8471C38.3508 31.9032 38.3821 31.9792 38.3821 32.0583C38.3821 32.1374 38.3508 32.2134 38.295 32.2695C38.2404 32.3252 38.1662 32.3575 38.0883 32.3594Z" fill="#093F68"/>
<path d="M40.2363 30.1935C40.1968 30.1938 40.1578 30.1862 40.1213 30.1713C40.0848 30.1564 40.0516 30.1344 40.0236 30.1067L34.1401 24.2322C34.1088 24.2053 34.0833 24.1723 34.0653 24.1351C34.0473 24.0979 34.0372 24.0575 34.0356 24.0162C34.034 23.975 34.041 23.9338 34.056 23.8954C34.0711 23.8569 34.0939 23.822 34.1231 23.7928C34.1523 23.7636 34.1872 23.7408 34.2257 23.7257C34.2641 23.7107 34.3053 23.7037 34.3465 23.7053C34.3878 23.7069 34.4283 23.717 34.4654 23.735C34.5026 23.753 34.5356 23.7784 34.5625 23.8098L40.449 29.6933C40.477 29.7211 40.4993 29.7542 40.5145 29.7907C40.5297 29.8273 40.5376 29.8664 40.5376 29.9059C40.5376 29.9455 40.5297 29.9847 40.5145 30.0212C40.4993 30.0577 40.477 30.0908 40.449 30.1186C40.3905 30.1704 40.3142 30.1972 40.2363 30.1935Z" fill="#093F68"/>
<path d="M42.6059 28.1744C42.5663 28.1742 42.5271 28.1662 42.4906 28.1508C42.4541 28.1354 42.421 28.1128 42.3932 28.0845L39.5264 25.2177C39.4773 25.1604 39.4517 25.0867 39.4546 25.0113C39.4575 24.9359 39.4887 24.8644 39.5421 24.811C39.5954 24.7577 39.667 24.7264 39.7424 24.7235C39.8177 24.7206 39.8915 24.7462 39.9488 24.7953L42.8156 27.6621C42.8714 27.7183 42.9027 27.7942 42.9027 27.8733C42.9027 27.9525 42.8714 28.0284 42.8156 28.0845C42.7603 28.141 42.6849 28.1733 42.6059 28.1744Z" fill="#093F68"/>
<path d="M56.4366 38.3418C54.8693 41.9475 52.5367 45.1694 49.6005 47.7841L49.3788 47.9818L44.8704 43.4883L45.9218 42.4368L52.6291 35.7266L53.2282 35.1274L56.4366 38.3418Z" fill="#0093DD"/>
<path d="M49.3791 48.2813C49.3396 48.2815 49.3006 48.274 49.2641 48.2591C49.2276 48.2442 49.1944 48.2222 49.1664 48.1944L44.6579 43.674C44.6021 43.6179 44.5708 43.5419 44.5708 43.4628C44.5708 43.3836 44.6021 43.3077 44.6579 43.2516L45.7094 42.2001L45.7363 42.1762L53.0068 34.9027C53.0347 34.8746 53.0678 34.8523 53.1043 34.8371C53.1408 34.8219 53.18 34.8141 53.2195 34.8141C53.2591 34.8141 53.2982 34.8219 53.3347 34.8371C53.3712 34.8523 53.4043 34.8746 53.4322 34.9027L56.6615 38.132C56.7037 38.1744 56.7322 38.2284 56.7434 38.2871C56.7546 38.3459 56.748 38.4066 56.7244 38.4615C55.1358 42.104 52.7782 45.3598 49.8134 48.0057L49.6637 48.1405L49.5888 48.2064C49.5311 48.2574 49.456 48.2842 49.3791 48.2813ZM45.293 43.4883L49.3911 47.5683C52.2403 45.0248 54.5173 41.9055 56.0714 38.4166L53.2105 35.5558L46.1288 42.6405L46.1018 42.6644L45.293 43.4883Z" fill="#093F68"/>
<path d="M39.2866 20.7634C38.8642 19.9725 38.8372 18.274 38.3639 16.0123C37.8906 13.7506 34.9429 11.7195 34.9429 11.7195V9.52368H25.4556C25.4077 11.1893 24.9164 14.2149 24.4641 16.237C23.9488 18.5256 24.1016 26.9524 24.1465 28.0309C24.2005 29.2291 25.5425 29.8582 26.2914 29.0044C26.8636 28.3544 26.9774 26.8835 26.9984 26.2155C26.9984 27.1681 26.9984 29.8492 27.28 30.8468C27.6365 32.069 28.5442 32.045 29.5297 31.6766C29.8293 31.5687 30.0031 31.1913 30.1109 30.721C30.1057 31.0894 30.1358 31.4576 30.2008 31.8204C30.4135 32.6621 31.3601 33.2403 32.4116 32.6621C32.9688 32.3626 33.1275 31.5957 33.1545 30.9456C33.3103 32.5842 33.7896 32.9258 34.9519 32.9258C36.3209 32.9258 36.1501 32.4524 36.1501 29.3969V21.9617C36.1501 21.9617 37.7828 24.7506 38.5916 25.3288C39.4004 25.9069 40.2033 25.5415 40.5208 24.2234C40.8383 22.9053 39.703 21.5512 39.2866 20.7634Z" fill="#FFC9B0"/>
<path d="M34.9399 33.2103C34.0022 33.2103 33.442 32.9557 33.1425 32.2817C33.0105 32.5468 32.8017 32.766 32.5433 32.9108C32.2939 33.0607 32.0129 33.1504 31.7228 33.1727C31.4326 33.1951 31.1412 33.1495 30.8718 33.0396C30.6311 32.9331 30.418 32.773 30.2488 32.5716C30.0795 32.3701 29.9586 32.1326 29.8952 31.8773C29.8952 31.8503 29.8952 31.8233 29.8772 31.7904C29.7996 31.8556 29.7114 31.9073 29.6166 31.9432C29.1193 32.1229 28.3854 32.3236 27.7862 32.018C27.5814 31.9015 27.4035 31.7431 27.2642 31.5532C27.1248 31.3632 27.0271 31.146 26.9774 30.9156C26.8281 30.2413 26.7449 29.5541 26.7288 28.8636C26.6637 28.978 26.5885 29.0862 26.5041 29.1872C26.3195 29.4084 26.0709 29.5669 25.7924 29.641C25.514 29.715 25.2194 29.7009 24.9493 29.6006C24.6269 29.4806 24.348 29.2665 24.1488 28.986C23.9496 28.7056 23.8392 28.3718 23.832 28.0278C23.778 26.7307 23.6462 18.4268 24.1555 16.156C24.5989 14.1819 25.0931 11.1773 25.1411 9.50269C25.1411 9.42324 25.1726 9.34705 25.2288 9.29087C25.285 9.23469 25.3612 9.20312 25.4406 9.20312H34.9249C35.0043 9.20312 35.0805 9.23469 35.1367 9.29087C35.1929 9.34705 35.2244 9.42324 35.2244 9.50269V11.5607C35.8236 11.9921 38.1991 13.8404 38.6395 15.9434C38.8372 16.884 38.954 17.7138 39.0589 18.4447C39.1997 19.4243 39.3075 20.1972 39.5322 20.6166C39.6131 20.7664 39.7239 20.9461 39.8318 21.1378C40.353 21.9706 41.066 23.115 40.7844 24.2893C40.5387 25.3078 40.0624 25.6822 39.703 25.814C39.4811 25.8859 39.2448 25.9011 39.0156 25.8582C38.7864 25.8153 38.5716 25.7157 38.3909 25.5684C37.8367 25.17 36.9859 23.9118 36.4227 23.0221V29.3759V30.2296C36.4227 31.7784 36.4227 32.4854 36.0423 32.8838C35.8056 33.1564 35.4282 33.2103 34.9399 33.2103ZM33.1425 30.6311C33.217 30.6307 33.289 30.6581 33.3444 30.708C33.3998 30.7578 33.4346 30.8265 33.442 30.9007C33.5888 32.4554 33.9872 32.6112 34.9399 32.6112C35.3353 32.6112 35.539 32.5663 35.6468 32.4674C35.8655 32.2457 35.8625 31.4908 35.8535 30.2386C35.8535 29.978 35.8535 29.6934 35.8535 29.3819V21.9616C35.8512 21.894 35.8719 21.8276 35.9121 21.7732C35.9524 21.7188 36.0099 21.6796 36.0752 21.6621C36.1385 21.6452 36.2056 21.6495 36.2662 21.6744C36.3268 21.6993 36.3776 21.7434 36.4107 21.7999C36.8571 22.5608 38.1482 24.6338 38.7683 25.0771C38.8709 25.1646 38.9931 25.2261 39.1245 25.2564C39.2559 25.2866 39.3927 25.2847 39.5232 25.2509C39.8378 25.134 40.0894 24.7416 40.2302 24.1455C40.4549 23.2168 39.8198 22.1953 39.3525 21.4494C39.2296 21.2487 39.1098 21.0599 39.0229 20.8922C38.7473 20.3799 38.6365 19.6011 38.4837 18.5256C38.3819 17.8007 38.265 16.9828 38.0703 16.0602C37.627 13.9393 34.8021 11.9741 34.7751 11.9561C34.735 11.9283 34.7023 11.8911 34.6799 11.8478C34.6574 11.8045 34.6459 11.7563 34.6463 11.7075V9.82323H25.7492C25.5736 12.0038 25.2432 14.1691 24.7606 16.3028C24.2663 18.5166 24.3951 26.7337 24.461 28.0159C24.4635 28.2403 24.533 28.4589 24.6606 28.6435C24.7881 28.8282 24.968 28.9706 25.177 29.0524C25.3338 29.1095 25.5045 29.1166 25.6655 29.0726C25.8264 29.0286 25.9698 28.9357 26.0757 28.8067C26.4322 28.4023 26.6748 27.4287 26.7078 26.2065C26.7078 26.127 26.7394 26.0508 26.7955 25.9947C26.8517 25.9385 26.9279 25.9069 27.0074 25.9069C27.0868 25.9069 27.163 25.9385 27.2192 25.9947C27.2754 26.0508 27.3069 26.127 27.3069 26.2065C27.3069 27.0273 27.3069 29.7773 27.5765 30.7509C27.6053 30.9021 27.6651 31.0457 27.7523 31.1725C27.8394 31.2994 27.952 31.4067 28.0828 31.4878C28.3824 31.6376 28.8197 31.6047 29.4368 31.383C29.5926 31.3261 29.7364 31.0564 29.8263 30.643C29.8342 30.5636 29.8734 30.4906 29.9352 30.44C29.997 30.3894 30.0763 30.3655 30.1558 30.3734C30.2352 30.3814 30.3083 30.4206 30.3588 30.4824C30.4094 30.5442 30.4333 30.6235 30.4254 30.703C30.4173 31.0493 30.4444 31.3956 30.5063 31.7365C30.5483 31.9024 30.6273 32.0567 30.7372 32.188C30.8472 32.3192 30.9853 32.4239 31.1414 32.4944C31.3268 32.5666 31.5267 32.5945 31.7248 32.5758C31.923 32.5571 32.1141 32.4923 32.2827 32.3865C32.7291 32.1439 32.8489 31.4549 32.8818 30.9216C32.8818 30.8422 32.9134 30.766 32.9696 30.7098C33.0258 30.6536 33.102 30.6221 33.1814 30.6221L33.1425 30.6311Z" fill="#093F68"/>
<path d="M33.1545 31.2302C33.0751 31.2302 32.9989 31.1986 32.9427 31.1424C32.8865 31.0862 32.855 31.01 32.855 30.9306V22.381C32.855 22.3015 32.8865 22.2253 32.9427 22.1692C32.9989 22.113 33.0751 22.0814 33.1545 22.0814C33.234 22.0814 33.3102 22.113 33.3664 22.1692C33.4226 22.2253 33.4541 22.3015 33.4541 22.381V30.9306C33.4541 31.01 33.4226 31.0862 33.3664 31.1424C33.3102 31.1986 33.234 31.2302 33.1545 31.2302Z" fill="#093F68"/>
<path d="M30.1108 31.0055C30.0314 31.0055 29.9552 30.9739 29.899 30.9177C29.8428 30.8616 29.8113 30.7854 29.8113 30.7059V22.381C29.8113 22.3015 29.8428 22.2253 29.899 22.1692C29.9552 22.113 30.0314 22.0814 30.1108 22.0814C30.1903 22.0814 30.2665 22.113 30.3227 22.1692C30.3788 22.2253 30.4104 22.3015 30.4104 22.381V30.7059C30.4104 30.7854 30.3788 30.8616 30.3227 30.9177C30.2665 30.9739 30.1903 31.0055 30.1108 31.0055Z" fill="#093F68"/>
<path d="M27.0044 26.4999C26.9249 26.4999 26.8488 26.4683 26.7926 26.4121C26.7364 26.3559 26.7048 26.2797 26.7048 26.2003V22.1442C26.7048 22.0647 26.7364 21.9885 26.7926 21.9323C26.8488 21.8762 26.9249 21.8446 27.0044 21.8446C27.0838 21.8446 27.16 21.8762 27.2162 21.9323C27.2724 21.9885 27.304 22.0647 27.304 22.1442V26.2003C27.304 26.2797 27.2724 26.3559 27.2162 26.4121C27.16 26.4683 27.0838 26.4999 27.0044 26.4999Z" fill="#093F68"/>
<path d="M36.4288 0.752276V9.52356H24.6079V1.18365C26.8578 0.59849 29.1732 0.303521 31.4979 0.305923C33.1516 0.306473 34.8019 0.455861 36.4288 0.752276Z" fill="#29166F"/>
<path d="M36.4289 9.82312H24.6081C24.5286 9.82312 24.4524 9.79155 24.3962 9.73537C24.3401 9.6792 24.3085 9.603 24.3085 9.52355V1.18364C24.3063 1.11561 24.3274 1.04888 24.3683 0.994427C24.4091 0.939977 24.4673 0.901056 24.5332 0.884075C28.434 -0.123668 32.5071 -0.271876 36.4709 0.449704C36.5407 0.462465 36.6036 0.499578 36.6486 0.554436C36.6936 0.609294 36.7177 0.678336 36.7165 0.74927V9.52355C36.7166 9.60097 36.6867 9.6754 36.633 9.73125C36.5794 9.78709 36.5063 9.82002 36.4289 9.82312ZM24.9076 9.22398H36.1174V1.0039C32.3927 0.360923 28.5748 0.501719 24.9076 1.4173V9.22398Z" fill="#093F68"/>
</g>
<defs>
<filter id="filter0_d_112_92" x="0" y="0" width="63" height="62.9884" filterUnits="userSpaceOnUse" color-interpolation-filters="sRGB">
<feFlood flood-opacity="0" result="BackgroundImageFix"/>
<feColorMatrix in="SourceAlpha" type="matrix" values="0 0 0 0 0 0 0 0 0 0 0 0 0 0 0 0 0 0 127 0" result="hardAlpha"/>
<feOffset dy="4"/>
<feGaussianBlur stdDeviation="2"/>
<feComposite in2="hardAlpha" operator="out"/>
<feColorMatrix type="matrix" values="0 0 0 0 0 0 0 0 0 0 0 0 0 0 0 0 0 0 0.25 0"/>
<feBlend mode="normal" in2="BackgroundImageFix" result="effect1_dropShadow_112_92"/>
<feBlend mode="normal" in="SourceGraphic" in2="effect1_dropShadow_112_92" result="shape"/>
</filter>
</defs>
</svg>
