<svg width="73" height="77" viewBox="0 0 73 77" fill="none" xmlns="http://www.w3.org/2000/svg">
<g filter="url(#filter0_d_59_47)">
<path d="M51.3115 59.9011L51.3114 59.901C51.1656 59.5752 51.3105 59.1976 51.6166 59.0553L51.6166 59.0553L51.6178 59.0547C51.9149 58.9157 52.2793 59.0456 52.4231 59.3671L52.4231 59.3672L55.7045 66.6996L55.7045 66.6996C55.8505 67.0258 55.7055 67.4037 55.3994 67.5462L55.3981 67.5468C55.3176 67.5845 55.2333 67.6021 55.1493 67.6021C54.9211 67.6021 54.698 67.4688 54.5929 67.2341C54.5928 67.234 54.5928 67.234 54.5928 67.234L51.3115 59.9011Z" fill="#142A3B" stroke="black"/>
<path d="M15.1561 67.5467L15.1548 67.5461C14.8484 67.4035 14.7036 67.0258 14.8497 66.6998L14.8498 66.6995L18.1308 59.3673C18.1308 59.3673 18.1308 59.3672 18.1308 59.3672C18.1308 59.3672 18.1308 59.3672 18.1308 59.3672C18.2751 59.0452 18.6394 58.9155 18.9364 59.0546L18.9376 59.0552C19.2437 59.1975 19.3885 59.5752 19.2426 59.9007L19.2425 59.9011L15.9616 67.2336C15.9615 67.2337 15.9615 67.2338 15.9615 67.2338C15.856 67.4689 15.6327 67.6021 15.405 67.6021C15.3209 67.6021 15.2367 67.5845 15.1561 67.5467Z" fill="#142A3B" stroke="black"/>
<path d="M67.6764 32.5016C67.6764 50.1844 53.6255 64.5019 36.3137 64.5019C19.0018 64.5019 4.95093 50.1844 4.95093 32.5016C4.95093 14.8184 19.0018 0.5 36.3137 0.5C53.6255 0.5 67.6764 14.8184 67.6764 32.5016Z" fill="#FF3A2F" stroke="black"/>
<path d="M59.7763 32.5016C59.7763 45.734 49.2626 56.4438 36.3136 56.4438C23.3646 56.4438 12.8506 45.7339 12.8506 32.5016C12.8506 19.2682 23.3646 8.55835 36.3136 8.55835C49.2626 8.55835 59.7763 19.2682 59.7763 32.5016Z" fill="#EDEDED" stroke="black"/>
<path d="M50.8267 32.5016C50.8267 40.6917 44.3196 47.3151 36.3137 47.3151C28.3076 47.3151 21.8005 40.6917 21.8005 32.5016C21.8005 24.3106 28.3076 17.6875 36.3137 17.6875C44.3196 17.6875 50.8267 24.3106 50.8267 32.5016Z" fill="#FF3A2F" stroke="black"/>
<path d="M42.4437 32.5015C42.4437 35.9692 39.6897 38.7637 36.3139 38.7637C32.9377 38.7637 30.1843 35.9693 30.1843 32.5015C30.1843 29.0331 32.9378 26.2385 36.3139 26.2385C39.6897 26.2385 42.4437 29.0332 42.4437 32.5015Z" fill="#EDEDED" stroke="black"/>
<path opacity="0.25" d="M57.7382 26.3022C57.7382 17.1327 54.0656 8.83943 48.1421 2.85899C59.5961 7.62202 67.6767 19.094 67.6767 32.5016C67.6767 50.1844 53.6258 64.5019 36.314 64.5019C29.4454 64.5019 23.0964 62.2452 17.93 58.4217C20.3206 58.997 22.8127 59.3034 25.3754 59.3034C43.2582 59.3034 57.7382 44.5194 57.7382 26.3022Z" fill="#020403" stroke="black"/>
</g>
<defs>
<filter id="filter0_d_59_47" x="0.450928" y="0" width="71.7258" height="76.1021" filterUnits="userSpaceOnUse" color-interpolation-filters="sRGB">
<feFlood flood-opacity="0" result="BackgroundImageFix"/>
<feColorMatrix in="SourceAlpha" type="matrix" values="0 0 0 0 0 0 0 0 0 0 0 0 0 0 0 0 0 0 127 0" result="hardAlpha"/>
<feOffset dy="4"/>
<feGaussianBlur stdDeviation="2"/>
<feComposite in2="hardAlpha" operator="out"/>
<feColorMatrix type="matrix" values="0 0 0 0 0 0 0 0 0 0 0 0 0 0 0 0 0 0 0.25 0"/>
<feBlend mode="normal" in2="BackgroundImageFix" result="effect1_dropShadow_59_47"/>
<feBlend mode="normal" in="SourceGraphic" in2="effect1_dropShadow_59_47" result="shape"/>
</filter>
</defs>
</svg>
